<svg version="1.2" xmlns="http://www.w3.org/2000/svg" viewBox="0 0 793 729" width="793" height="729">
	<defs>
		<clipPath clipPathUnits="userSpaceOnUse" id="cp1">
			<path d="m0 0h1600v1600h-1600z"/>
		</clipPath>
		<clipPath clipPathUnits="userSpaceOnUse" id="cp2">
			<path d="m0 0h1600v1600h-1600z"/>
		</clipPath>
		<clipPath clipPathUnits="userSpaceOnUse" id="cp3">
			<path d="m0 0h1600v1600h-1600z"/>
		</clipPath>
		<clipPath clipPathUnits="userSpaceOnUse" id="cp4">
			<path d="m0 0h1600v1600h-1600z"/>
		</clipPath>
		<clipPath clipPathUnits="userSpaceOnUse" id="cp5">
			<path d="m0 0h1600v1600h-1600z"/>
		</clipPath>
		<clipPath clipPathUnits="userSpaceOnUse" id="cp6">
			<path d="m0 0h1600v1600h-1600z"/>
		</clipPath>
		<clipPath clipPathUnits="userSpaceOnUse" id="cp7">
			<path d="m0 0h1600v1600h-1600z"/>
		</clipPath>
		<clipPath clipPathUnits="userSpaceOnUse" id="cp8">
			<path d="m0 0h1600v1600h-1600z"/>
		</clipPath>
		<clipPath clipPathUnits="userSpaceOnUse" id="cp9">
			<path d="m0 0h1600v1600h-1600z"/>
		</clipPath>
		<clipPath clipPathUnits="userSpaceOnUse" id="cp10">
			<path d="m0 0h1600v1600h-1600z"/>
		</clipPath>
		<clipPath clipPathUnits="userSpaceOnUse" id="cp11">
			<path d="m0 0h1600v1600h-1600z"/>
		</clipPath>
		<clipPath clipPathUnits="userSpaceOnUse" id="cp12">
			<path d="m0 0h1600v1600h-1600z"/>
		</clipPath>
	</defs>
	<style>
		.s0 { fill: #fed403 } 
		.s1 { fill: #cbb802 } 
		.s2 { fill: #839201 } 
		.s3 { fill: #2a313b } 
	</style>
	<g id="layer-MC0">
		<g id="Clip-Path: path76" clip-path="url(#cp1)">
			<path id="path76" class="s0" d="m86.74 30.51c43.17 19.89 75.21 11.48 84.36-15.58-12.97-5.19-27.22-7.89-42.05-7.89h-117.66v22.64c15.38-6.41 43.81-13.7 75.35 0.83z"/>
		</g>
		<g id="Clip-Path: path78" clip-path="url(#cp2)">
			<path id="path78" class="s1" d="m88.33 96.7c42.89 30.71 82.07 22.77 93.72 5.82 11.64-16.92 30.56-39.66 41.74-37.33-10.76-23.99-29.68-41.07-52.69-50.26-9.15 27.06-41.19 35.47-84.36 15.58-31.54-14.53-59.97-7.24-75.35-0.83v75.49c0 0 34.05-39.18 76.94-8.47z"/>
		</g>
		<g id="Clip-Path: path80" clip-path="url(#cp3)">
			<path id="path80" class="s2" d="m223.79 65.19c-11.18-2.33-30.1 20.41-41.74 37.34-11.65 16.94-50.83 24.88-93.72-5.83-42.89-30.71-76.94 8.47-76.94 8.47v66.19c0 0 18.16-57.71 82.23-25.41 64 32.26 130.76 19.12 139.82-29.47 0.02-1.05 0.07-2.09 0.07-3.15 0-18.22-3.52-34.32-9.72-48.14z"/>
		</g>
		<g id="Clip-Path: path82" clip-path="url(#cp4)">
			<path id="path82" class="s3" d="m268.01 7.03h201.66v63.58h-134.44v63.14h120.36v60.41h-120.36v66.76h138.08v64.05h-205.3z"/>
		</g>
		<g id="Clip-Path: path84" clip-path="url(#cp5)">
			<path id="path84" class="s3" d="m497.05 166c0-91.3 74.49-166.24 165.79-166.24 53.59 0 99.92 25.89 129.45 65.86l-54.51 39.51c-17.26-23.16-43.6-37.69-74.94-37.69-54.51 0-98.11 44.05-98.11 98.56 0 54.05 43.6 98.1 98.11 98.1 31.34 0 57.68-14.53 74.94-37.69l54.51 39.97c-29.53 39.51-75.86 65.4-129.45 65.4-91.3 0-165.79-74.49-165.79-165.78z"/>
		</g>
		<g id="Clip-Path: path86" clip-path="url(#cp6)">
			<path id="path86" class="s2" d="m0.17 618.28h70.19c0 21.1 17.18 41.22 50.06 41.22 32.89 0 48.1-22.08 48.1-45.15 0-23.56-15.7-45.15-60.86-45.15h-19.14v-56.45h19.14c35.83 0 45.16-23.56 45.16-40.25 0-17.17-12.27-37.3-43.19-37.3-30.43 0-42.71 26.02-42.71 40.74h-65.27c-1.97-52.52 35.34-106.02 111.9-106.02 59.39 0 110.44 31.42 110.44 86.39 0 36.81-21.6 61.35-48.11 75.58 35.83 14.24 65.77 42.21 65.77 86.39 0 64.79-51.04 109.94-118.28 109.94-68.72 0-129.58-39.27-123.2-109.94z"/>
		</g>
		<g id="Clip-Path: path88" clip-path="url(#cp7)">
			<path id="path88" class="s2" d="m262.41 614.35c0-33.38 13.25-61.35 24.05-79.02l97.18-158.04h76.08l-76.57 122.7c65.77 0.98 115.34 44.17 115.34 110.43 0 67.25-50.55 117.8-117.79 117.8-67.24 0-118.29-46.63-118.29-113.87zm118.29 45.15c26.5 0 48.59-22.08 48.59-48.59 0-26.99-22.09-48.59-48.59-48.59-27 0-48.59 21.6-48.59 48.59 0 26.51 21.59 48.59 48.59 48.59z"/>
		</g>
		<g id="Clip-Path: path90" clip-path="url(#cp8)">
			<path id="path90" class="s2" d="m515.41 549.07c0-97.18 43.69-179.15 132.52-179.15 88.35 0 132.03 81.97 132.03 179.15 0 97.18-43.68 179.15-132.03 179.15-88.83 0-132.52-81.97-132.52-179.15zm132.52 110.43c48.1 0 59.39-64.29 59.39-110.43 0-46.14-11.29-110.43-59.39-110.43-48.59 0-59.88 64.29-59.88 110.43 0 46.14 11.29 110.43 59.88 110.43z"/>
		</g>
		<g id="Clip-Path: path92" clip-path="url(#cp9)">
			<path id="path92" class="s3" d="m175.7 162.88q-0.84-2.73-0.65-5.63c0.16-2.61 0.5-5.18 1.38-7.68 0.63-1.76-0.09-2.84-1.94-3.04-1.62-0.17-2.66 0.42-3.31 2.07-0.91 2.29-1.32 4.69-0.77 7.16 0.22 1 0.26 2.01 0.26 3.27 0.15 1.28-0.37 2.76-0.29 4.26v0.07q-0.32 0.04-0.65 0.05-0.11-0.61-0.43-1.56c-0.83-2.48-0.91-4.96-0.4-7.48q1.03-5.03 1.72-10.1c0.37-2.68 0.69-5.39 2.03-7.83 0.58-1.07 1.29-2.03 2.56-2.39-0.18 0.43-0.46 0.76-0.72 1.1-1 1.21-1.76 2.54-2.15 4.09-0.52 2.16 0.92 5.64 3.95 6.17 2.56 0.44 4.8-0.08 6.77-1.61 3.35-2.59 5-6.17 5.61-10.27 0.39-2.66 0.14-5.4 0.79-8.06 0.63-2.59 1.83-4.59 4.51-5.47 1.88-0.63 2.93-2.09 3.12-3.97 0.2-2 0.66-2.23 2.64-1.76 1.74 0.41 2.97-0.58 4.36-1.18 0.36-0.16 0.52-0.6 0.57-1.01 0.11-0.84 0.17-1.68 0.29-2.51 0.22-1.45-0.17-2.58-1.41-3.48-1.64-1.18-2.15-2.81-1.64-4.82 0.33-1.35 0.31-2.76-0.39-4.03-1.96-3.64-4.92-5.91-9.12-6.32-1.25-0.12-2.78 0-3.45 1.01-1.4 2.1-3.2 1.83-5.16 1.51-0.35-0.05-0.71-0.03-1.07-0.01-0.38 0.02-0.84-0.07-1.05 0.37-0.23 0.44 0.09 0.76 0.33 1.07q0.21 0.26 0.42 0.53c0.14 0.21 0.37 0.44 0.25 0.71-0.17 0.38-0.53 0.2-0.83 0.18-1.14-0.05-2.3-0.14-3.45-0.16-3.83-0.06-7.07 1.1-9.32 4.4-1.95 2.87-4.83 4.26-8.13 4.87-1.14 0.2-2.28 0.41-3.43 0.47-4.48 0.16-8.95 0.46-13.36-0.79-6.27-1.77-12.68-2.71-19.21-2.52-3.28 0.11-6.55 0.44-9.83 0.59-5.33 0.25-9.04 3.04-11.15 7.97q-1.11 2.67-1.56 5.49c-0.82 5.16-0.88 10.35-0.66 15.55 0.13 3.33 0.1 6.67 0.04 10-0.03 1.27-0.24 2.56-0.7 3.79-0.64 1.68-1.48 2.18-3.26 1.96q-0.11-0.02-0.22-0.02-1.99-0.95-3.97-1.94c-64.07-32.31-82.23 25.41-82.23 25.41v153.61h67.24v-105.84h50.42c55.41 0 102.89-37.4 104.38-102.65-5.01 26.88-27.66 42.89-57.73 46.4zm-69.97-38.49c-0.72-5.04 0.88-9.48 3.58-13.63-2.05 4.33-2.96 8.95-3.58 13.63zm-0.86 19.89c0.62 2.39 0.8 4.77 0.8 7.19q-2.12-0.87-4.22-1.82c0.77-0.8 1.28-1.78 1.62-2.86 0.98-3.07 1.5-6.23 1.84-9.4 0.24-2.28 0.4-4.56 0.6-6.84 1.14 3.72 1.68 7.42-0.06 11.08-0.42 0.85-0.83 1.65-0.58 2.65zm59.03 17.96q-0.14 0.82-0.2 1.36c-10.2 0.08-21.03-1.15-32.13-3.75-2.08-3.72-2.92-7.72-1.51-11.88 1.03-3-3.79-7.17-6.6-6.25-0.6 0.2-1.13 0.49-1.56 0.96-1.29 1.37-1.71 3.85-0.93 5.57 1.52 3.36 3.01 6.72 4.54 10.07q-7.38-2.02-14.86-4.87 0.71-2.35 2.29-4.57c1.52-2.13 3.01-4.29 4.11-6.69 1.89-4.11 4.44-4.94 8.29-2.68q6.79 3.97 13.6 7.9c2.03 1.19 3.99 1.31 5.91-0.32 1.25-1.06 2.7-1.85 4.2-2.56 2.2-1.04 4.42-1.7 6.93-1.42 2.2 0.26 3.55-1.06 3.61-3.28 0.03-1.15 0-2.28 0-3.43 0.76 1.52 0.91 3.17 0.92 4.87 0.03 3.88 0.44 7.66 2 11.32 1.31 3.05 1.91 6.3 1.39 9.65z"/>
		</g>
		<g id="Clip-Path: path94" clip-path="url(#cp10)">
			<path id="path94" class="s3" d="m203.3 95.45c0.82 0.13 1.87 0.26 2.91 0.49 0.56 0.12 1.09 0.44 1.23 1.08 0.14 0.68-0.28 1.08-0.8 1.39-1.07 0.63-1.51 1.83-2.38 2.64-0.28 0.25-0.52 0.69-1 0.47-0.39-0.18-0.33-0.59-0.34-0.94-0.04-1.3-0.51-2.49-0.95-3.7-0.39-1.08-0.04-1.49 1.33-1.43z"/>
		</g>
		<g id="Clip-Path: path96" clip-path="url(#cp11)">
		</g>
		<g id="Clip-Path: path98" clip-path="url(#cp12)">
		</g>
	</g>
</svg>